NotoSerif-CondensedItalic.ufo
<glyph name="equal" format="2">
  <advance width="425"/>
  <unicode hex="003D"/>
  <outline>
    <contour>
      <point x="58" y="423" type="line"/>
      <point x="398" y="423" type="line"/>
      <point x="398" y="481" type="line"/>
      <point x="58" y="481" type="line"/>
    </contour>
    <contour>
      <point x="58" y="233" type="line"/>
      <point x="398" y="233" type="line"/>
      <point x="398" y="291" type="line"/>
      <point x="58" y="291" type="line"/>
    </contour>
  </outline>
</glyph>
<glyph name="acute" format="2">
  <advance width="241"/>
  <unicode hex="00B4"/>
  <outline>
    <contour>
      <point x="112" y="606" type="line"/>
      <point x="151" y="606" type="line"/>
      <point x="203" y="642"/>
      <point x="275" y="716"/>
      <point x="304" y="756" type="curve"/>
      <point x="307" y="766" type="line"/>
      <point x="209" y="766" type="line"/>
      <point x="183" y="716"/>
      <point x="145" y="659"/>
      <point x="115" y="619" type="curve"/>
    </contour>
  </outline>
</glyph>
<glyph name="uni01B6" format="2">
  <advance width="419"/>
  <unicode hex="01B6"/>
  <anchor x="152" y="0" name="bottom"/>
  <anchor x="266" y="536" name="top"/>
  <anchor x="456" y="536" name="topright"/>
  <outline>
    <contour>
      <point x="62" y="245" type="line"/>
      <point x="160" y="245" type="line"/>
      <point x="228" y="245" type="line"/>
      <point x="345" y="245" type="line"/>
      <point x="356" y="290" type="line"/>
      <point x="263" y="290" type="line"/>
      <point x="179" y="290" type="line"/>
      <point x="72" y="290" type="line"/>
    </contour>
    <component base="z"/>
  </outline>
</glyph>
<glyph name="uni01E4" format="2">
  <advance width="587"/>
  <unicode hex="01E4"/>
  <anchor x="237" y="0" name="bottom"/>
  <anchor x="389" y="714" name="top"/>
  <anchor x="662" y="714" name="topright"/>
  <outline>
    <contour>
      <point x="304" y="154" type="line"/>
      <point x="551" y="154" type="line"/>
      <point x="562" y="198" type="line"/>
      <point x="314" y="198" type="line"/>
    </contour>
    <component base="G"/>
  </outline>
</glyph>
<glyph name="uni0246" format="2">
  <advance width="505"/>
  <unicode hex="0246"/>
  <anchor x="196" y="0" name="bottom"/>
  <anchor x="348" y="714" name="top"/>
  <anchor x="580" y="714" name="topright"/>
  <outline>
    <contour>
      <point x="105" y="-92" type="line"/>
      <point x="153" y="-92" type="line"/>
      <point x="512" y="760" type="line"/>
      <point x="466" y="760" type="line"/>
    </contour>
    <component base="E"/>
  </outline>
</glyph>
<glyph name="uni024D" format="2">
  <advance width="392"/>
  <unicode hex="024D"/>
  <anchor x="139" y="0" name="bottom"/>
  <anchor x="253" y="536" name="top"/>
  <anchor x="429" y="536" name="topright"/>
  <outline>
    <contour>
      <point x="13" y="261" type="line"/>
      <point x="283" y="261" type="line"/>
      <point x="293" y="307" type="line"/>
      <point x="23" y="307" type="line"/>
    </contour>
    <component base="r"/>
  </outline>
</glyph>
<glyph name="uni0289" format="2">
  <advance width="495"/>
  <unicode hex="0289"/>
  <anchor x="190" y="0" name="bottom"/>
  <anchor x="304" y="536" name="top"/>
  <anchor x="532" y="536" name="topright"/>
  <outline>
    <contour>
      <point x="20" y="261" type="line"/>
      <point x="493" y="261" type="line"/>
      <point x="504" y="305" type="line"/>
      <point x="29" y="305" type="line"/>
    </contour>
    <component base="u"/>
  </outline>
</glyph>
<glyph name="commaaccent" format="2">
  <unicode hex="0326"/>
  <anchor x="-135" y="0" name="_bottom"/>
  <anchor x="-163" y="-221" name="bottom"/>
  <outline>
    <contour>
      <point x="-232" y="-221" type="line"/>
      <point x="-198" y="-221" type="line"/>
      <point x="-168" y="-185"/>
      <point x="-112" y="-104"/>
      <point x="-98" y="-68" type="curve"/>
      <point x="-96" y="-61" type="line"/>
      <point x="-176" y="-61" type="line"/>
      <point x="-190" y="-105"/>
      <point x="-213" y="-169"/>
      <point x="-230" y="-211" type="curve"/>
    </contour>
  </outline>
</glyph>
<glyph name="uni04FE" format="2">
  <advance width="544"/>
  <unicode hex="04FE"/>
  <anchor x="215" y="0" name="bottom"/>
  <anchor x="367" y="714" name="top"/>
  <anchor x="619" y="714" name="topright"/>
  <outline>
    <contour>
      <point x="87" y="350" type="line"/>
      <point x="521" y="350" type="line"/>
      <point x="531" y="399" type="line"/>
      <point x="97" y="399" type="line"/>
    </contour>
    <component base="X"/>
  </outline>
</glyph>
<glyph name="uni051E" format="2">
  <advance width="571"/>
  <unicode hex="051E"/>
  <anchor x="228" y="0" name="bottom"/>
  <anchor x="380" y="714" name="top"/>
  <outline>
    <contour>
      <point x="486" y="428" type="line"/>
      <point x="515" y="461" type="line"/>
      <point x="352" y="617" type="line"/>
      <point x="324" y="585" type="line"/>
    </contour>
    <component base="afii10028"/>
  </outline>
</glyph>
<glyph name="uni1D06" format="2">
  <advance width="469"/>
  <unicode hex="1D06"/>
  <anchor x="178" y="0" name="bottom"/>
  <anchor x="292" y="536" name="top"/>
  <outline>
    <contour>
      <point x="37" y="258" type="line"/>
      <point x="273" y="258" type="line"/>
      <point x="283" y="304" type="line"/>
      <point x="47" y="304" type="line"/>
    </contour>
    <component base="uni1D05"/>
  </outline>
</glyph>
<glyph name="uni1D7D" format="2">
  <advance width="478"/>
  <unicode hex="1D7D"/>
  <anchor x="47" y="-240" name="bottom"/>
  <anchor x="300" y="536" name="top"/>
  <anchor x="508" y="536" name="topright"/>
  <outline>
    <contour>
      <point x="16" y="262" type="line"/>
      <point x="497" y="262" type="line"/>
      <point x="507" y="307" type="line"/>
      <point x="27" y="307" type="line"/>
    </contour>
    <component base="p"/>
  </outline>
</glyph>
<glyph name="uni2067" format="2">
  <advance width="1000"/>
  <unicode hex="2067"/>
  <outline>
    <contour>
      <point x="185" y="164" type="line"/>
      <point x="323" y="164" type="line"/>
      <point x="323" y="185" type="line"/>
      <point x="306" y="185" type="line" smooth="yes"/>
      <point x="295" y="185"/>
      <point x="285" y="188"/>
      <point x="285" y="209" type="curve" smooth="yes"/>
      <point x="285" y="288" type="line"/>
      <point x="312" y="288" type="line"/>
      <point x="359" y="200" type="line" smooth="yes"/>
      <point x="375" y="170"/>
      <point x="397" y="164"/>
      <point x="445" y="164" type="curve" smooth="yes"/>
      <point x="458" y="164" type="line"/>
      <point x="458" y="185" type="line"/>
      <point x="456" y="185" type="line" smooth="yes"/>
      <point x="441" y="185"/>
      <point x="430" y="195"/>
      <point x="416" y="218" type="curve" smooth="yes"/>
      <point x="369" y="300" type="line"/>
      <point x="395" y="311"/>
      <point x="423" y="334"/>
      <point x="423" y="376" type="curve" smooth="yes"/>
      <point x="423" y="424"/>
      <point x="389" y="450"/>
      <point x="314" y="450" type="curve" smooth="yes"/>
      <point x="185" y="450" type="line"/>
      <point x="185" y="429" type="line"/>
      <point x="202" y="429" type="line" smooth="yes"/>
      <point x="213" y="429"/>
      <point x="222" y="426"/>
      <point x="222" y="405" type="curve" smooth="yes"/>
      <point x="222" y="209" type="line" smooth="yes"/>
      <point x="222" y="188"/>
      <point x="213" y="185"/>
      <point x="202" y="185" type="curve" smooth="yes"/>
      <point x="185" y="185" type="line"/>
    </contour>
    <contour>
      <point x="61" y="-187" type="line"/>
      <point x="209" y="-187" type="line"/>
      <point x="209" y="-134" type="line"/>
      <point x="115" y="-134" type="line"/>
      <point x="115" y="-39" type="line"/>
      <point x="61" y="-39" type="line"/>
    </contour>
    <contour>
      <point x="61" y="19" type="line"/>
      <point x="115" y="19" type="line"/>
      <point x="115" y="151" type="line"/>
      <point x="61" y="151" type="line"/>
    </contour>
    <contour>
      <point x="268" y="-187" type="line"/>
      <point x="400" y="-187" type="line"/>
      <point x="400" y="-134" type="line"/>
      <point x="268" y="-134" type="line"/>
    </contour>
    <contour>
      <point x="61" y="210" type="line"/>
      <point x="115" y="210" type="line"/>
      <point x="115" y="343" type="line"/>
      <point x="61" y="343" type="line"/>
    </contour>
    <contour>
      <point x="459" y="-187" type="line"/>
      <point x="592" y="-187" type="line"/>
      <point x="592" y="-134" type="line"/>
      <point x="459" y="-134" type="line"/>
    </contour>
    <contour>
      <point x="650" y="-187" type="line"/>
      <point x="783" y="-187" type="line"/>
      <point x="783" y="-134" type="line"/>
      <point x="650" y="-134" type="line"/>
    </contour>
    <contour>
      <point x="61" y="402" type="line"/>
      <point x="115" y="402" type="line"/>
      <point x="115" y="534" type="line"/>
      <point x="61" y="534" type="line"/>
    </contour>
    <contour>
      <point x="285" y="312" type="line"/>
      <point x="285" y="427" type="line"/>
      <point x="307" y="427" type="line" smooth="yes"/>
      <point x="342" y="427"/>
      <point x="356" y="411"/>
      <point x="356" y="371" type="curve" smooth="yes"/>
      <point x="356" y="331"/>
      <point x="344" y="312"/>
      <point x="308" y="312" type="curve" smooth="yes"/>
    </contour>
    <contour>
      <point x="61" y="593" type="line"/>
      <point x="115" y="593" type="line"/>
      <point x="115" y="687" type="line"/>
      <point x="209" y="687" type="line"/>
      <point x="209" y="741" type="line"/>
      <point x="61" y="741" type="line"/>
    </contour>
    <contour>
      <point x="841" y="-187" type="line"/>
      <point x="989" y="-187" type="line"/>
      <point x="989" y="-39" type="line"/>
      <point x="936" y="-39" type="line"/>
      <point x="936" y="-134" type="line"/>
      <point x="841" y="-134" type="line"/>
    </contour>
    <contour>
      <point x="467" y="164" type="line"/>
      <point x="701" y="164" type="line"/>
      <point x="704" y="253" type="line"/>
      <point x="682" y="253" type="line"/>
      <point x="675" y="223" type="line" smooth="yes"/>
      <point x="670" y="201"/>
      <point x="660" y="188"/>
      <point x="642" y="188" type="curve" smooth="yes"/>
      <point x="568" y="188" type="line"/>
      <point x="568" y="405" type="line"/>
      <point x="568" y="426"/>
      <point x="577" y="429"/>
      <point x="588" y="429" type="curve" smooth="yes"/>
      <point x="605" y="429" type="line"/>
      <point x="605" y="450" type="line"/>
      <point x="467" y="450" type="line"/>
      <point x="467" y="429" type="line"/>
      <point x="484" y="429" type="line" smooth="yes"/>
      <point x="496" y="429"/>
      <point x="504" y="426"/>
      <point x="504" y="403" type="curve" smooth="yes"/>
      <point x="504" y="211" type="line" smooth="yes"/>
      <point x="504" y="188"/>
      <point x="496" y="185"/>
      <point x="484" y="185" type="curve" smooth="yes"/>
      <point x="467" y="185" type="line"/>
    </contour>
    <contour>
      <point x="936" y="19" type="line"/>
      <point x="989" y="19" type="line"/>
      <point x="989" y="151" type="line"/>
      <point x="936" y="151" type="line"/>
    </contour>
    <contour>
      <point x="268" y="687" type="line"/>
      <point x="400" y="687" type="line"/>
      <point x="400" y="741" type="line"/>
      <point x="268" y="741" type="line"/>
    </contour>
    <contour>
      <point x="728" y="164" type="line"/>
      <point x="866" y="164" type="line"/>
      <point x="866" y="185" type="line"/>
      <point x="849" y="185" type="line"/>
      <point x="838" y="185"/>
      <point x="829" y="188"/>
      <point x="829" y="211" type="curve"/>
      <point x="829" y="403" type="line"/>
      <point x="829" y="426"/>
      <point x="838" y="429"/>
      <point x="849" y="429" type="curve"/>
      <point x="866" y="429" type="line"/>
      <point x="866" y="450" type="line"/>
      <point x="728" y="450" type="line"/>
      <point x="728" y="429" type="line"/>
      <point x="745" y="429" type="line"/>
      <point x="757" y="429"/>
      <point x="765" y="426"/>
      <point x="765" y="403" type="curve"/>
      <point x="765" y="211" type="line"/>
      <point x="765" y="188"/>
      <point x="757" y="185"/>
      <point x="745" y="185" type="curve"/>
      <point x="728" y="185" type="line"/>
    </contour>
    <contour>
      <point x="936" y="210" type="line"/>
      <point x="989" y="210" type="line"/>
      <point x="989" y="343" type="line"/>
      <point x="936" y="343" type="line"/>
    </contour>
    <contour>
      <point x="459" y="687" type="line"/>
      <point x="592" y="687" type="line"/>
      <point x="592" y="741" type="line"/>
      <point x="459" y="741" type="line"/>
    </contour>
    <contour>
      <point x="936" y="402" type="line"/>
      <point x="989" y="402" type="line"/>
      <point x="989" y="534" type="line"/>
      <point x="936" y="534" type="line"/>
    </contour>
    <contour>
      <point x="650" y="687" type="line"/>
      <point x="783" y="687" type="line"/>
      <point x="783" y="741" type="line"/>
      <point x="650" y="741" type="line"/>
    </contour>
    <contour>
      <point x="936" y="593" type="line"/>
      <point x="989" y="593" type="line"/>
      <point x="989" y="741" type="line"/>
      <point x="841" y="741" type="line"/>
      <point x="841" y="687" type="line"/>
      <point x="936" y="687" type="line"/>
    </contour>
  </outline>
</glyph>
<glyph name="parenrightsuperior" format="2">
  <advance width="200"/>
  <unicode hex="207E"/>
  <outline>
    <contour>
      <point x="4" y="196" type="line"/>
      <point x="156" y="231"/>
      <point x="241" y="366"/>
      <point x="241" y="566" type="curve" smooth="yes"/>
      <point x="241" y="656"/>
      <point x="206" y="753"/>
      <point x="129" y="788" type="curve"/>
      <point x="120" y="744" type="line"/>
      <point x="155" y="708"/>
      <point x="167" y="624"/>
      <point x="167" y="565" type="curve" smooth="yes"/>
      <point x="167" y="423"/>
      <point x="126" y="314"/>
      <point x="13" y="238" type="curve"/>
    </contour>
  </outline>
</glyph>
<glyph name="uni20B5" format="2">
  <advance width="511"/>
  <unicode hex="20B5"/>
  <anchor x="247" y="0" name="bottom"/>
  <anchor x="392" y="714" name="top"/>
  <anchor x="586" y="714" name="topright"/>
  <outline>
    <contour>
      <point x="198" y="-87" type="line"/>
      <point x="240" y="-87" type="line"/>
      <point x="421" y="759" type="line"/>
      <point x="378" y="759" type="line"/>
    </contour>
    <component base="C"/>
  </outline>
</glyph>
<glyph name="uni2C61" format="2">
  <advance width="253"/>
  <unicode hex="2C61"/>
  <anchor x="69" y="0" name="bottom"/>
  <anchor x="231" y="760" name="top"/>
  <anchor x="184" y="268" name="center"/>
  <anchor x="339" y="760" name="topright"/>
  <outline>
    <contour>
      <point x="7" y="284" type="line"/>
      <point x="266" y="284" type="line"/>
      <point x="275" y="330" type="line"/>
      <point x="182" y="330" type="line"/>
      <point x="198" y="401" type="line"/>
      <point x="289" y="401" type="line"/>
      <point x="299" y="447" type="line"/>
      <point x="39" y="447" type="line"/>
      <point x="30" y="401" type="line"/>
      <point x="117" y="401" type="line"/>
      <point x="103" y="330" type="line"/>
      <point x="16" y="330" type="line"/>
    </contour>
    <component base="l"/>
  </outline>
</glyph>
<glyph name="uniA742" format="2">
  <advance width="569"/>
  <unicode hex="A742"/>
  <anchor x="228" y="0" name="bottom"/>
  <anchor x="380" y="714" name="top"/>
  <anchor x="644" y="714" name="topright"/>
  <outline>
    <contour>
      <point x="267" y="113" type="line"/>
      <point x="497" y="283" type="line"/>
      <point x="480" y="321" type="line"/>
      <point x="250" y="152" type="line"/>
    </contour>
    <component base="K"/>
  </outline>
</glyph>
<glyph name="uniA74A" format="2">
  <advance width="604"/>
  <unicode hex="A74A"/>
  <anchor x="246" y="0" name="bottom"/>
  <anchor x="341" y="357" name="center"/>
  <anchor x="398" y="714" name="top"/>
  <anchor x="679" y="714" name="topright"/>
  <outline>
    <contour>
      <point x="17" y="348" type="line"/>
      <point x="625" y="348" type="line"/>
      <point x="637" y="398" type="line"/>
      <point x="27" y="398" type="line"/>
    </contour>
    <component base="O"/>
  </outline>
</glyph>
<glyph name="uniA792" format="2">
  <advance width="524"/>
  <unicode hex="A792"/>
  <anchor x="260" y="0" name="bottom"/>
  <anchor x="405" y="714" name="top"/>
  <anchor x="599" y="714" name="topright"/>
  <outline>
    <contour>
      <point x="6" y="349" type="line"/>
      <point x="291" y="349" type="line"/>
      <point x="303" y="398" type="line"/>
      <point x="16" y="398" type="line"/>
    </contour>
    <component base="C" xOffset="13"/>
  </outline>
</glyph>
<glyph name="uniA793" format="2">
  <advance width="398"/>
  <unicode hex="A793"/>
  <anchor x="173" y="0" name="bottom"/>
  <anchor x="289" y="536" name="top"/>
  <anchor x="435" y="536" name="topright"/>
  <outline>
    <contour>
      <point x="-4" y="253" type="line"/>
      <point x="243" y="253" type="line"/>
      <point x="254" y="299" type="line"/>
      <point x="7" y="299" type="line"/>
    </contour>
    <component base="c"/>
  </outline>
</glyph>
<glyph name="uniA7A0" format="2">
  <advance width="589"/>
  <unicode hex="A7A0"/>
  <anchor x="264" y="0" name="bottom"/>
  <anchor x="419" y="714" name="top"/>
  <anchor x="662" y="714" name="topright"/>
  <outline>
    <contour>
      <point x="0" y="217" type="line"/>
      <point x="584" y="370" type="line"/>
      <point x="596" y="419" type="line"/>
      <point x="11" y="266" type="line"/>
    </contour>
    <component base="G"/>
  </outline>
</glyph>
<glyph name="uniA7A9" format="2">
  <advance width="381"/>
  <unicode hex="A7A9"/>
  <anchor x="134" y="0" name="bottom"/>
  <anchor x="248" y="536" name="top"/>
  <anchor x="418" y="536" name="topright"/>
  <outline>
    <contour>
      <point x="47" y="225" type="line"/>
      <point x="358" y="294" type="line"/>
      <point x="368" y="335" type="line"/>
      <point x="58" y="267" type="line"/>
    </contour>
    <component base="s"/>
  </outline>
</glyph>
<glyph name="uniA7AE" format="2">
  <advance width="448"/>
  <unicode hex="A7AE"/>
  <guideline x="270" y="695" angle="78"/>
  <guideline x="113" y="649" angle="78"/>
  <outline>
    <contour>
      <point x="-25" y="0" type="line"/>
      <point x="359" y="0" type="line"/>
      <point x="399" y="159" type="line"/>
      <point x="356" y="159" type="line"/>
      <point x="344" y="126" type="line" smooth="yes"/>
      <point x="323" y="63"/>
      <point x="309" y="45"/>
      <point x="274" y="45" type="curve" smooth="yes"/>
      <point x="221" y="45" type="line"/>
      <point x="352" y="669" type="line"/>
      <point x="404" y="669" type="line" smooth="yes"/>
      <point x="433" y="669"/>
      <point x="444" y="656"/>
      <point x="444" y="616" type="curve" smooth="yes"/>
      <point x="444" y="603"/>
      <point x="442" y="585"/>
      <point x="438" y="555" type="curve"/>
      <point x="481" y="555" type="line"/>
      <point x="511" y="714" type="line"/>
      <point x="127" y="714" type="line"/>
      <point x="87" y="555" type="line"/>
      <point x="130" y="555" type="line"/>
      <point x="142" y="588" type="line" smooth="yes"/>
      <point x="165" y="650"/>
      <point x="177" y="669"/>
      <point x="212" y="669" type="curve" smooth="yes"/>
      <point x="265" y="669" type="line"/>
      <point x="134" y="45" type="line"/>
      <point x="81" y="45" type="line" smooth="yes"/>
      <point x="50" y="45"/>
      <point x="43" y="62"/>
      <point x="44" y="108" type="curve" smooth="yes"/>
      <point x="44" y="117"/>
      <point x="45" y="131"/>
      <point x="48" y="159" type="curve"/>
      <point x="5" y="159" type="line"/>
    </contour>
  </outline>
</glyph>
<glyph name="uniAB32" format="2">
  <advance width="542"/>
  <unicode hex="AB32"/>
  <outline>
    <contour>
      <point x="398" y="0" type="line"/>
      <point x="464" y="0" type="line"/>
      <point x="464" y="688" type="line"/>
      <point x="398" y="688" type="line"/>
      <point x="398" y="238" type="line"/>
      <point x="251" y="392" type="line"/>
      <point x="78" y="392" type="line"/>
      <point x="78" y="326" type="line"/>
      <point x="225" y="326" type="line"/>
      <point x="398" y="143" type="line"/>
    </contour>
  </outline>
</glyph>
<glyph name="combiningmacronlefthalf" format="2">
  <unicode hex="FE24"/>
  <anchor x="57" y="536" name="_top"/>
  <outline>
    <contour>
      <point x="88" y="681" type="line"/>
      <point x="382" y="681" type="line"/>
      <point x="396" y="737" type="line"/>
      <point x="101" y="737" type="line"/>
    </contour>
  </outline>
</glyph>
<glyph name="uniFE28" format="2">
  <unicode hex="FE28"/>
  <anchor x="-57" y="0" name="_bottom"/>
  <outline>
    <contour>
      <point x="-101" y="-206" type="line"/>
      <point x="49" y="-206"/>
      <point x="158" y="-147"/>
      <point x="242" y="-26" type="curve"/>
      <point x="203" y="-26" type="line"/>
      <point x="140" y="-107"/>
      <point x="41" y="-148"/>
      <point x="-88" y="-148" type="curve"/>
    </contour>
  </outline>
</glyph>
<glyph name="uniFE2A" format="2">
  <unicode hex="FE2A"/>
  <anchor x="-57" y="0" name="_bottom"/>
  <outline>
    <contour>
      <point x="66" y="-195" type="curve" smooth="yes"/>
      <point x="149" y="-195"/>
      <point x="208" y="-148"/>
      <point x="240" y="-66" type="curve"/>
      <point x="201" y="-66" type="line"/>
      <point x="176" y="-118"/>
      <point x="126" y="-135"/>
      <point x="85" y="-135" type="curve" smooth="yes"/>
      <point x="45" y="-135"/>
      <point x="-2" y="-124"/>
      <point x="-77" y="-98" type="curve"/>
      <point x="-92" y="-164" type="line"/>
      <point x="-37" y="-185"/>
      <point x="16" y="-195"/>
    </contour>
  </outline>
</glyph>
<glyph name="tbar.sc" format="2">
  <advance width="427"/>
  <anchor x="172" y="0" name="bottom"/>
  <anchor x="294" y="571" name="top"/>
  <anchor x="232" y="286" name="center"/>
  <anchor x="500" y="571" name="topright"/>
  <outline>
    <contour>
      <point x="80" y="263" type="line"/>
      <point x="386" y="263" type="line"/>
      <point x="393" y="301" type="line"/>
      <point x="88" y="301" type="line"/>
    </contour>
    <component base="t.sc"/>
  </outline>
</glyph>
<glyph name="zero.slash" format="2">
  <advance width="461"/>
  <outline>
    <contour>
      <point x="112" y="166" type="line"/>
      <point x="437" y="552" type="line"/>
      <point x="406" y="592" type="line"/>
      <point x="81" y="206" type="line"/>
    </contour>
    <component base="zero"/>
  </outline>
</glyph>
